<svg width="21" height="20" viewBox="0 0 21 20" fill="none" xmlns="http://www.w3.org/2000/svg">
<g id="Icon">
<path id="Vector" d="M9.07856 3.21635L2.02022 14.9997C1.8747 15.2517 1.7977 15.5374 1.79688 15.8284C1.79607 16.1195 1.87147 16.4056 2.01558 16.6585C2.15969 16.9113 2.3675 17.122 2.61831 17.2696C2.86913 17.4171 3.15422 17.4965 3.44522 17.4997H17.5619C17.8529 17.4965 18.138 17.4171 18.3888 17.2696C18.6396 17.122 18.8474 16.9113 18.9915 16.6585C19.1356 16.4056 19.211 16.1195 19.2102 15.8284C19.2094 15.5374 19.1324 15.2517 18.9869 14.9997L11.9286 3.21635C11.78 2.97144 11.5708 2.76895 11.3212 2.62842C11.0716 2.48789 10.79 2.41406 10.5036 2.41406C10.2171 2.41406 9.9355 2.48789 9.68589 2.62842C9.43629 2.76895 9.22712 2.97144 9.07856 3.21635V3.21635Z" stroke="#252525" stroke-linecap="round" stroke-linejoin="round"/>
<path id="Vector_2" d="M10.5 7.5V10.8333" stroke="#252525" stroke-linecap="round" stroke-linejoin="round"/>
<path id="Vector_3" d="M10.5 14.167H10.5083" stroke="#252525" stroke-linecap="round" stroke-linejoin="round"/>
</g>
</svg>
