<svg width="72" height="65" viewBox="0 0 72 65" fill="none" xmlns="http://www.w3.org/2000/svg">
<rect x="2.875" y="2.75" width="59.3547" height="62" rx="29.6773" fill="#FFF8EB"/>
<path d="M45.5891 31.2255L44.1599 37.3213C42.9349 42.5859 40.5141 44.7151 35.9641 44.2776C35.2349 44.2192 34.4474 44.088 33.6016 43.8838L31.1516 43.3005C25.0703 41.8567 23.1891 38.8526 24.6182 32.7567L26.0474 26.6463C26.3391 25.4067 26.6891 24.3276 27.1266 23.438C28.8328 19.9088 31.7349 18.9609 36.6057 20.113L39.0411 20.6817C45.1516 22.1109 47.0182 25.1296 45.5891 31.2255Z" stroke="#B27A14" stroke-width="2" stroke-linecap="round" stroke-linejoin="round"/>
<path d="M35.9647 44.2771C35.0605 44.8896 33.923 45.4 32.5376 45.8521L30.2335 46.6104C24.4439 48.4771 21.396 46.9167 19.5147 41.1271L17.648 35.3667C15.7814 29.5771 17.3272 26.5146 23.1168 24.6479L25.421 23.8896C26.0189 23.7 26.5876 23.5396 27.1272 23.4375C26.6897 24.3271 26.3397 25.4063 26.048 26.6458L24.6189 32.7563C23.1897 38.8521 25.071 41.8562 31.1522 43.3L33.6022 43.8833C34.448 44.0875 35.2355 44.2187 35.9647 44.2771Z" stroke="#B27A14" stroke-width="2" stroke-linecap="round" stroke-linejoin="round"/>
<path d="M32.4375 28.4375L39.5104 30.2313" stroke="#B27A14" stroke-width="2" stroke-linecap="round" stroke-linejoin="round"/>
<path d="M31 34.0859L35.2292 35.1651" stroke="#B27A14" stroke-width="2" stroke-linecap="round" stroke-linejoin="round"/>
<ellipse cx="70.8401" cy="22.416" rx="0.957333" ry="1" fill="#E6A123"/>
<ellipse cx="64.1412" cy="55.416" rx="1.91467" ry="2" fill="#E6A123"/>
<ellipse cx="0.957333" cy="52.416" rx="0.957333" ry="1" fill="#E6A123"/>
<ellipse cx="14.36" cy="2.41602" rx="1.91467" ry="2" fill="#E6A123"/>
</svg>
