<svg width="26" height="27" viewBox="0 0 26 27" fill="none" xmlns="http://www.w3.org/2000/svg">
<path d="M11.6854 18C11.6134 18 11.547 17.9613 11.5115 17.8988L10.7414 16.5425C10.7059 16.4799 10.6394 16.4413 10.5675 16.4413H10.5046C10.3941 16.4413 10.3046 16.5308 10.3046 16.6413V17.8C10.3046 17.9105 10.2151 18 10.1046 18H9.7C9.58954 18 9.5 17.9105 9.5 17.8V14.2C9.5 14.0895 9.58954 14 9.7 14H11.0057C11.3161 14 11.5805 14.0554 11.7989 14.1662C12.0172 14.2732 12.1801 14.4202 12.2874 14.6074C12.3985 14.7908 12.454 14.9971 12.454 15.2264C12.454 15.49 12.3774 15.7287 12.2241 15.9427C12.1162 16.0907 11.9712 16.2065 11.7891 16.29C11.6686 16.3454 11.6073 16.4916 11.6748 16.6057L12.3214 17.6981C12.4003 17.8315 12.3042 18 12.1492 18H11.6854ZM10.3046 15.6395C10.3046 15.75 10.3941 15.8395 10.5046 15.8395H10.977C11.1954 15.8395 11.3582 15.788 11.4655 15.6848C11.5728 15.5778 11.6264 15.4308 11.6264 15.2436C11.6264 15.0602 11.5728 14.9188 11.4655 14.8195C11.3582 14.7163 11.1954 14.6648 10.977 14.6648H10.5046C10.3941 14.6648 10.3046 14.7543 10.3046 14.8648V15.6395Z" fill="#252525"/>
<path d="M12.2221 4.72727H15.7777C17.5554 4.72727 17.5554 4.04545 17.5554 3.36364C17.5554 2 16.6666 2 15.7777 2H12.2221C11.3332 2 10.4443 2 10.4443 3.36364C10.4443 4.72727 11.3332 4.72727 12.2221 4.72727Z" stroke="#252525" stroke-width="1.5" stroke-miterlimit="10" stroke-linecap="round" stroke-linejoin="round"/>
<path d="M17.5556 3.81836C20.5156 4.00038 22 5.24419 22 9.86548V15.9328C22 19.9777 21.1111 22.0002 16.6667 22.0002H11.3333C6.88889 22.0002 6 19.9777 6 15.9328V9.86548C6 5.2543 7.48444 4.00038 10.4444 3.81836" stroke="#252525" stroke-width="1.5" stroke-miterlimit="10" stroke-linecap="round" stroke-linejoin="round"/>
<path d="M11.8809 11.3706C11.8522 11.2915 11.7771 11.2389 11.693 11.2389H10.301C10.2169 11.2389 10.1418 11.2915 10.113 11.3706L9.93208 11.8683C9.90334 11.9474 9.82822 12 9.74411 12H9.28926C9.14944 12 9.05277 11.8602 9.10215 11.7294L10.4609 8.12937C10.4903 8.05152 10.5648 8 10.6481 8H11.3519C11.4352 8 11.5097 8.05152 11.5391 8.12937L12.8979 11.7294C12.9472 11.8602 12.8506 12 12.7107 12H12.2499C12.1658 12 12.0906 11.9474 12.0619 11.8683L11.8809 11.3706ZM11.319 10.598C11.4578 10.598 11.5544 10.4601 11.507 10.3297L11.185 9.44402C11.1211 9.26848 10.8729 9.26847 10.809 9.44402L10.487 10.3297C10.4396 10.4601 10.5362 10.598 10.675 10.598H11.319Z" fill="#252525"/>
<path d="M19 15L15 15" stroke="#252525" stroke-linecap="round" stroke-linejoin="round"/>
<path d="M17 17L15 17" stroke="#252525" stroke-linecap="round" stroke-linejoin="round"/>
<path d="M19 9L15 9" stroke="#252525" stroke-linecap="round" stroke-linejoin="round"/>
<path d="M17 11L15 11" stroke="#252525" stroke-linecap="round" stroke-linejoin="round"/>
</svg>
