<svg width="20" height="24" viewBox="0 0 20 24" fill="none" xmlns="http://www.w3.org/2000/svg">
<path fill-rule="evenodd" clip-rule="evenodd" d="M16.5388 4.87317C16.5388 2.12229 14.6581 1.01953 11.9504 1.01953H5.59148C2.96692 1.01953 1 2.0471 1 4.68971V19.4135C1 20.1393 1.78095 20.5965 2.41353 20.2416L8.79549 16.6616L15.1223 20.2356C15.7559 20.5925 16.5388 20.1353 16.5388 19.4085V4.87317Z" stroke="#E6A123" stroke-width="1.5" stroke-linecap="round" stroke-linejoin="round"/>
<path fill-rule="evenodd" clip-rule="evenodd" d="M19.5388 7.87317C19.5388 5.12229 17.6581 4.01953 14.9504 4.01953H8.59148C5.96692 4.01953 4 5.0471 4 7.68971V22.4135C4 23.1393 4.78095 23.5965 5.41353 23.2416L11.7955 19.6616L18.1223 23.2356C18.7559 23.5925 19.5388 23.1353 19.5388 22.4085V7.87317Z" fill="#E6A123"/>
</svg>
