<svg width="16" height="16" viewBox="0 0 16 16" fill="none" xmlns="http://www.w3.org/2000/svg">
<path d="M6.00065 14.6673H10.0007C13.334 14.6673 14.6673 13.334 14.6673 10.0007V6.00065C14.6673 2.66732 13.334 1.33398 10.0007 1.33398H6.00065C2.66732 1.33398 1.33398 2.66732 1.33398 6.00065V10.0007C1.33398 13.334 2.66732 14.6673 6.00065 14.6673Z" stroke="#292D32" stroke-linecap="round" stroke-linejoin="round"/>
<path d="M12.2528 10.1802V5.05349C12.2528 4.54015 11.8394 4.16683 11.3328 4.20683H11.3061C10.4128 4.28016 9.05944 4.74017 8.29944 5.2135L8.22612 5.26017C8.10612 5.33351 7.89941 5.33351 7.77275 5.26017L7.6661 5.1935C6.91276 4.72017 5.55943 4.27349 4.6661 4.20016C4.15943 4.16016 3.74609 4.54017 3.74609 5.04683V10.1802C3.74609 10.5868 4.07942 10.9735 4.48608 11.0202L4.60608 11.0402C5.52608 11.1602 6.95278 11.6335 7.76611 12.0802L7.78609 12.0868C7.89943 12.1535 8.08608 12.1535 8.19275 12.0868C9.00608 11.6335 10.4394 11.1668 11.3661 11.0402L11.5061 11.0202C11.9194 10.9735 12.2528 10.5935 12.2528 10.1802Z" stroke="#292D32" stroke-linecap="round" stroke-linejoin="round"/>
<path d="M8 5.40039V11.7737" stroke="#292D32" stroke-linecap="round" stroke-linejoin="round"/>
</svg>
