<svg width="65" height="62" viewBox="0 0 65 62" fill="none" xmlns="http://www.w3.org/2000/svg">
<g clip-path="url(#clip0_8066_55485)">
<path opacity="0.5" d="M64.2754 31.1706C65.1964 26.6324 64.9869 23.7532 63.5961 21.835C63.347 21.4916 63.0754 21.2009 62.7926 20.9556L64.2447 18.8959C64.8762 18.0008 64.8994 16.812 64.3038 15.8929C63.7988 15.1137 62.9101 14.6461 62.0302 14.6697C61.7714 14.6323 61.5065 14.633 61.2402 14.6753L53.7401 15.8439L53.5464 14.5984C54.0948 14.8355 54.6771 14.9652 55.2581 14.9652C55.8514 14.9652 56.4417 14.8395 56.9833 14.584C56.9841 14.5837 56.9841 14.5837 56.9841 14.5837C58.5881 13.8269 59.6863 12.1283 59.7178 10.3567C59.7454 8.77585 58.9232 7.39965 57.5167 6.67471C56.0496 5.91796 54.4598 5.90375 53.1603 6.63655C52.7667 6.85828 52.4245 7.14472 52.1268 7.47386C51.8158 7.05074 51.3865 6.71702 50.874 6.53368C49.9972 6.21946 49.0171 6.38555 48.2922 6.9676C48.177 7.04204 48.0677 7.12583 47.9637 7.21898L46.6111 8.42947C46.249 8.18258 45.8226 8.02173 45.3587 7.97684C44.5208 7.89604 42.6056 7.71163 42.0759 7.45988C41.844 6.92122 41.7295 5.00112 41.6801 4.16133C41.5971 2.76381 40.4524 1.66517 39.0527 1.63936C37.929 1.6229 36.9077 2.32091 36.5075 3.33913L35.4579 1.76654C34.9304 0.97576 34.0177 0.532113 33.0758 0.577376C32.1271 0.631241 31.278 1.18299 30.8433 2.02802L26.8774 9.73646L21.012 6.9691C20.3043 6.6358 19.4873 6.62683 18.7751 6.94591C18.0614 7.26461 17.522 7.87846 17.299 8.62735L15.6651 14.1026L7.98395 11.7179C7.02783 11.4216 5.98941 11.6805 5.28541 12.3901C4.58142 13.0993 4.33079 14.1411 4.63379 15.0935L5.99839 19.3732C3.35522 20.2164 1.92178 23.3391 2.47241 27.2612C2.50982 27.5272 2.58912 28.0606 2.71406 28.7699L1.71156 29.5404C0.936483 30.136 0.547452 31.1056 0.694835 32.0714C0.842219 33.0369 1.50357 33.846 2.42079 34.183L4.1864 34.832C4.6697 36.3249 5.20686 37.6301 5.79415 38.7369L3.22055 42.7268C2.70134 43.5314 2.65122 44.5515 3.08813 45.4036C3.52504 46.2554 4.38316 46.8097 5.33928 46.858L11.4 47.1629C11.3775 47.3087 11.3528 47.44 11.3274 47.5478C10.7708 47.6817 9.57375 47.7748 9.01863 47.8182C7.6226 47.9267 6.54528 49.0912 6.54528 50.4913C6.54528 51.8915 7.6226 53.0559 9.01863 53.1644C9.57375 53.2078 10.7708 53.301 11.3274 53.4353C11.4613 53.9922 11.5548 55.1889 11.5982 55.7448C11.7067 57.1408 12.8715 58.2177 14.2713 58.2177C14.8025 58.2177 15.2993 58.0629 15.7175 57.7947L15.7721 58.2959C15.7863 58.4212 15.8087 58.5443 15.8394 58.664L15.8619 58.9243C15.9456 59.9052 16.5599 60.761 17.4621 61.1545C17.8055 61.3046 18.1706 61.3779 18.5335 61.3779C19.1215 61.3779 19.705 61.1841 20.1846 60.8089L30.3309 52.8783L38.1848 60.3888C38.8462 61.0206 39.7828 61.2713 40.6724 61.0562C41.5612 60.8396 42.2779 60.1853 42.5741 59.3201L43.9245 55.38C45.1986 54.6341 46.05 53.2101 46.0762 51.7299C46.0867 51.1418 45.9699 50.5841 45.7395 50.0828L45.8218 49.8438L59.8352 51.7542C60.8257 51.8903 61.8088 51.4628 62.3856 50.6469C62.9632 49.8311 63.0387 48.762 62.5824 47.8728L59.8584 42.5655C60.4217 41.3072 60.4913 39.8625 60.014 38.5338C61.7183 37.5246 63.4136 35.4163 64.2754 31.1706Z" fill="#231F20"/>
<path d="M63.627 30.5964C64.5479 26.0582 64.3385 23.179 62.9477 21.2608C62.6985 20.9174 62.427 20.6267 62.1442 20.3813L63.5963 18.3217C64.2277 17.4266 64.2509 16.2378 63.6554 15.3187C63.1504 14.5395 62.2616 14.0719 61.3818 14.0955C61.123 14.0581 60.8581 14.0588 60.5918 14.1011L53.0917 15.2697L52.8979 14.0242C53.4464 14.2613 54.0287 14.391 54.6097 14.391C55.2029 14.391 55.7932 14.2653 56.3349 14.0098C56.3356 14.0094 56.3356 14.0094 56.3356 14.0094C57.9396 13.2527 59.0379 11.554 59.0693 9.78245C59.097 8.20163 58.2748 6.82543 56.8683 6.10049C55.4012 5.34374 53.8114 5.32953 52.5119 6.06233C52.1183 6.28406 51.7761 6.57051 51.4784 6.89964C51.1674 6.47652 50.738 6.1428 50.2256 5.95946C49.3487 5.64525 48.3687 5.81133 47.6437 6.39338C47.5285 6.46782 47.4193 6.55162 47.3153 6.64476L45.9627 7.85525C45.6006 7.60836 45.1741 7.44751 44.7103 7.40262C43.8724 7.32182 41.9571 7.13741 41.4275 6.88566C41.1955 6.347 41.0811 4.4269 41.0317 3.58712C40.9486 2.18959 39.804 1.09095 38.4042 1.06514C37.2805 1.04868 36.2593 1.74669 35.8591 2.76491L34.8094 1.19232C34.282 0.40154 33.3692 -0.0421054 32.4273 0.00315695C31.4787 0.0570226 30.6296 0.608775 30.1949 1.4538L26.229 9.16225L20.3636 6.39488C19.6559 6.06158 18.8389 6.05261 18.1267 6.37169C17.4129 6.6904 16.8735 7.30424 16.6506 8.05313L15.0167 13.5284L7.33551 11.1437C6.37939 10.8474 5.34098 11.1063 4.63698 11.8159C3.93298 12.5251 3.68235 13.5669 3.98535 14.5193L5.34995 18.799C2.70678 19.6422 1.27334 22.7649 1.82397 26.687C1.86138 26.953 1.94068 27.4864 2.06562 28.1956L1.06312 28.9662C0.288046 29.5617 -0.100986 30.5313 0.0463975 31.4972C0.193781 32.4627 0.855136 33.2718 1.77235 33.6088L3.53796 34.2578C4.02126 35.7507 4.55842 37.0559 5.14571 38.1627L2.57211 42.1525C2.05291 42.9572 2.00278 43.9773 2.43969 44.8294C2.87661 45.6811 3.73472 46.2355 4.69084 46.2838L10.7515 46.5886C10.7291 46.7345 10.7044 46.8658 10.6789 46.9736C10.1223 47.1075 8.92531 47.2006 8.37019 47.244C6.97416 47.3525 5.89684 48.517 5.89684 49.9171C5.89684 51.3172 6.97416 52.4817 8.37019 52.5902C8.92531 52.6336 10.1223 52.7267 10.6789 52.861C10.8129 53.418 10.9064 54.6147 10.9498 55.1705C11.0583 56.5666 12.2231 57.6435 13.6229 57.6435C14.1541 57.6435 14.6508 57.4886 15.069 57.2204L15.1236 57.7217C15.1379 57.847 15.1603 57.9701 15.191 58.0898L15.2134 58.3501C15.2972 59.3309 15.9114 60.1868 16.8137 60.5803C17.1571 60.7303 17.5222 60.8036 17.885 60.8036C18.4731 60.8036 19.0566 60.6099 19.5362 60.2347L29.6824 52.304L37.5364 59.8146C38.1977 60.4464 39.1344 60.697 40.0239 60.4819C40.9127 60.2654 41.6294 59.6111 41.9257 58.7459L43.2761 54.8058C44.5502 54.0599 45.4016 52.6358 45.4277 51.1557C45.4382 50.5676 45.3215 50.0099 45.0911 49.5086L45.1734 49.2696L59.1868 51.18C60.1773 51.3161 61.1604 50.8886 61.7372 50.0727C62.3147 49.2569 62.3903 48.1878 61.9339 47.2986L59.21 41.9913C59.7733 40.733 59.8429 39.2883 59.3656 37.9596C61.0698 36.9504 62.7651 34.8421 63.627 30.5964Z" fill="white"/>
<path d="M27.8526 13.1405L32.593 2.68164L41.278 15.6977L49.3365 8.48543L50.9463 18.832L61.419 16.7779L50.9156 31.6787L59.5629 48.5245L43.3653 46.3164L39.4036 57.8778L29.8729 48.7639L17.8989 58.1237L16.7201 44.2047L4.83933 43.6072L11.5214 34.3302L2.71094 31.0934L10.6611 25.7436L6.96445 14.1523L17.2354 17.3406L19.644 9.26762L27.8526 13.1405Z" fill="#22093A" stroke="#22093A" stroke-width="0.540186" stroke-miterlimit="10" stroke-linecap="round" stroke-linejoin="round"/>
<path d="M27.4422 12.694L32.593 2.68164L41.0587 15.8561L49.1173 8.64384L50.5359 18.3855L61.0188 16.7514L50.5052 31.2322L59.1524 48.0781L42.9549 45.87L38.9932 57.4314L29.4625 48.3174L17.8031 57.4314L16.3097 43.7583L4.83933 43.6073L11.1109 33.8837L2.71094 31.0934L10.2507 25.2972L6.55403 13.7059L16.8249 16.8942L19.2336 8.82119L27.4422 12.694Z" fill="#9736FF" stroke="#22093A" stroke-width="0.540186" stroke-miterlimit="10" stroke-linecap="round" stroke-linejoin="round"/>
<path d="M26.1243 41.6976C25.3455 42.6743 26.0438 43.9916 26.9929 44.1481C28.1871 44.345 29.6867 43.2201 29.0168 41.9668C28.347 40.7135 27.0562 40.5289 26.1243 41.6976Z" fill="#EC6509" stroke="#22093A" stroke-width="0.540186" stroke-miterlimit="10" stroke-linecap="round" stroke-linejoin="round"/>
<path d="M52.9886 9.98367C52.898 11.2956 54.2908 12.0193 55.2066 11.5872C56.3589 11.0436 56.9853 9.1722 55.6555 8.48701C54.3257 7.80183 53.097 8.41388 52.9886 9.98367Z" fill="#9736FF" stroke="#22093A" stroke-width="0.540186" stroke-miterlimit="10" stroke-linecap="round" stroke-linejoin="round"/>
<path d="M19.972 14.4211C19.9015 15.4427 20.9861 16.0063 21.6993 15.6698C22.5967 15.2465 23.0844 13.7892 22.0489 13.2556C21.0133 12.722 20.0565 13.1986 19.972 14.4211Z" fill="white" stroke="#22093A" stroke-width="0.540186" stroke-miterlimit="10" stroke-linecap="round" stroke-linejoin="round"/>
<path d="M40.1048 51.3019C40.0343 52.3236 41.1189 52.8871 41.8321 52.5507C42.7295 52.1273 43.2173 50.67 42.1817 50.1364C41.1461 49.6029 40.1893 50.0795 40.1048 51.3019Z" fill="white" stroke="#22093A" stroke-width="0.540186" stroke-miterlimit="10" stroke-linecap="round" stroke-linejoin="round"/>
<path d="M13.8089 47.8067L11.6953 49.9199L13.8085 52.0335L15.9221 49.9203L13.8089 47.8067Z" fill="#EC6509"/>
<path d="M13.8031 55.3445C13.603 55.3445 13.4369 55.1904 13.4212 54.9914C13.0916 50.7599 12.96 50.6283 8.7285 50.2983C8.52874 50.2834 8.375 50.1165 8.375 49.9168C8.375 49.717 8.52874 49.5502 8.72812 49.5352C12.96 49.2045 13.0916 49.0729 13.4212 44.8414C13.4369 44.6424 13.603 44.4883 13.8031 44.4883C14.0032 44.4883 14.1693 44.6424 14.185 44.8414C14.5142 49.0729 14.6459 49.2045 18.8777 49.5352C19.0771 49.5502 19.2309 49.717 19.2309 49.9168C19.2309 50.1165 19.0771 50.2834 18.8774 50.2983C14.6459 50.6283 14.5142 50.7599 14.185 54.9914C14.1693 55.1904 14.0032 55.3445 13.8031 55.3445ZM11.6893 49.9168C12.9188 50.234 13.4855 50.8003 13.8031 52.0295C14.1203 50.8003 14.687 50.234 15.9166 49.9168C14.687 49.5988 14.1203 49.0325 13.8031 47.8033C13.4855 49.0325 12.9188 49.5988 11.6893 49.9168Z" fill="#22093A"/>
<path d="M38.3192 6.95312L37.0549 8.68991L35.2578 9.90416L37.3551 10.9611L38.2092 12.9659L39.455 11.1773L41.2706 10.0145L39.5423 8.77719L38.3192 6.95312Z" fill="#EC6509"/>
<path d="M38.1605 16.553C38.1583 16.553 38.156 16.553 38.1538 16.553C37.9533 16.5492 37.7902 16.3921 37.7782 16.1927C37.467 10.952 37.2515 10.7291 32.0261 10.2256C31.8271 10.2065 31.676 10.0374 31.6798 9.8373C31.6835 9.63755 31.8402 9.47408 32.04 9.46211C37.2807 9.15014 37.5036 8.93542 38.0071 3.70967C38.0266 3.51104 38.2121 3.36291 38.3954 3.36328C38.5959 3.36702 38.759 3.52376 38.771 3.72351C39.0822 8.96422 39.2977 9.18717 44.5234 9.69104C44.7224 9.71012 44.8736 9.8792 44.8698 10.0793C44.8661 10.2791 44.709 10.4425 44.5092 10.4545C39.2693 10.7661 39.0456 10.9808 38.5421 16.2066C38.5226 16.4033 38.3573 16.553 38.1605 16.553ZM35.2682 9.90314C37.1266 10.3322 37.859 11.0923 38.2196 12.9649C38.6483 11.1069 39.4084 10.3737 41.281 10.0135C39.4234 9.58443 38.6902 8.82395 38.3296 6.9521C37.9009 8.80936 37.14 9.54253 35.2682 9.90314Z" fill="#22093A"/>
<path d="M26.2109 48.5582L27.2217 47.8496" stroke="#22093A" stroke-width="0.540186" stroke-miterlimit="10" stroke-linecap="round" stroke-linejoin="round"/>
<path d="M19.5859 53.9688L24.0403 50.0801" stroke="#22093A" stroke-width="0.540186" stroke-miterlimit="10" stroke-linecap="round" stroke-linejoin="round"/>
<path d="M55.0156 46L56.3995 46.2286" stroke="#22093A" stroke-width="0.540186" stroke-miterlimit="10" stroke-linecap="round" stroke-linejoin="round"/>
<path d="M51.75 45.4609L53.8933 45.8149" stroke="#22093A" stroke-width="0.540186" stroke-miterlimit="10" stroke-linecap="round" stroke-linejoin="round"/>
<path d="M42.5781 16.588L46.2874 13.2715" stroke="#D9BBFF" stroke-width="0.540186" stroke-miterlimit="10" stroke-linecap="round" stroke-linejoin="round"/>
<path d="M47.2109 12.4865L47.6037 12.0938" stroke="#D9BBFF" stroke-width="0.540186" stroke-miterlimit="10" stroke-linecap="round" stroke-linejoin="round"/>
<path d="M10.6484 16.4688L13.0216 17.3744" stroke="#D9BBFF" stroke-width="0.540186" stroke-miterlimit="10" stroke-linecap="round" stroke-linejoin="round"/>
<path d="M14.3438 17.875L14.8543 18.0066" stroke="#D9BBFF" stroke-width="0.540186" stroke-miterlimit="10" stroke-linecap="round" stroke-linejoin="round"/>
<path d="M13.1283 24.4123C14.0246 24.1919 14.7809 24.1408 15.397 24.259C16.0219 24.3612 16.5357 24.5227 16.9382 24.7437C17.4052 25 17.7869 25.3353 18.0833 25.7495C18.4701 26.381 18.6639 26.9536 18.6647 27.4674C18.6619 27.9688 18.5793 28.4054 18.4171 28.7773C18.2319 29.21 17.96 29.6003 17.6014 29.9482C18.2258 29.9558 18.7394 30.0701 19.1419 30.2911C19.5444 30.512 19.8579 30.7522 20.0822 31.0116C20.346 31.3135 20.5484 31.6604 20.6896 32.0522C20.8634 32.5563 20.946 33.026 20.9375 33.4613C20.929 33.8967 20.8561 34.2967 20.7188 34.6614C20.5778 35.0136 20.3885 35.3392 20.151 35.6384C19.9134 35.9375 19.6587 36.2011 19.3869 36.429C18.7331 36.9711 17.9369 37.4194 16.9985 37.7738C16.4856 37.9637 16.0037 38.0973 15.5527 38.1745C15.1017 38.2517 14.687 38.2912 14.3088 38.2931C13.9306 38.295 13.5862 38.2736 13.2755 38.2287C12.9612 38.1714 12.6825 38.097 12.4394 38.0055C11.855 37.8104 11.3727 37.5247 10.9926 37.1483C10.4333 36.6213 9.99042 36.0062 9.66396 35.3031C9.33749 34.6 9.08167 33.9305 8.89648 33.2945C8.70767 32.646 8.57442 32.049 8.49674 31.5034C8.41906 30.9579 8.37746 30.4898 8.37192 30.0991C8.3607 29.6424 8.37466 29.2257 8.4138 28.8491C8.45246 28.3779 8.55293 27.9563 8.7152 27.5844C8.87383 27.2 9.0657 26.86 9.2908 26.5645C9.52473 26.2529 9.77943 25.9894 10.0549 25.7739C10.3428 25.5548 10.6255 25.3642 10.903 25.2023C11.5667 24.8332 12.3084 24.5699 13.1283 24.4123ZM13.5629 28.3441C13.3509 28.4058 13.1901 28.5271 13.0804 28.7078C12.9795 28.8725 12.9599 29.0608 13.0217 29.2728C13.0798 29.4723 13.1841 29.6449 13.3347 29.7904C13.4941 29.9198 13.7173 29.9428 14.0041 29.8593C14.2535 29.7867 14.417 29.6511 14.4945 29.4527C14.5683 29.2418 14.5762 29.0366 14.5181 28.8371C14.4637 28.65 14.3541 28.5061 14.1895 28.4052C14.0212 28.2918 13.8123 28.2715 13.5629 28.3441ZM15.0385 32.7845C14.8265 32.8462 14.663 32.9818 14.5481 33.1911C14.4456 33.3968 14.4359 33.5958 14.519 33.788C14.6202 34.0426 14.7476 34.2017 14.9014 34.2651C15.0676 34.325 15.2567 34.324 15.4687 34.2623C15.6807 34.2006 15.8372 34.0874 15.938 33.9227C16.0389 33.7581 16.0585 33.5698 15.9967 33.3578C15.9386 33.1582 15.8236 32.9956 15.6517 32.8697C15.4798 32.7439 15.2754 32.7155 15.0385 32.7845Z" fill="#252525"/>
<path d="M11.9096 23.1955C12.8059 22.9751 13.5621 22.924 14.1782 23.0422C14.8032 23.1444 15.3169 23.3059 15.7195 23.5269C16.1864 23.7832 16.5681 24.1185 16.8646 24.5327C17.2514 25.1642 17.4451 25.7368 17.4459 26.2506C17.4431 26.752 17.3606 27.1886 17.1983 27.5605C17.0131 27.9932 16.7412 28.3835 16.3826 28.7314C17.0071 28.739 17.5206 28.8533 17.9231 29.0743C18.3257 29.2953 18.6391 29.5354 18.8634 29.7948C19.1272 30.0968 19.3297 30.4436 19.4708 30.8354C19.6446 31.3395 19.7273 31.8092 19.7188 32.2445C19.7103 32.6799 19.6373 33.0799 19.5 33.4446C19.3591 33.7968 19.1698 34.1224 18.9322 34.4216C18.6947 34.7207 18.44 34.9843 18.1681 35.2122C17.5143 35.7543 16.7182 36.2026 15.7797 36.557C15.2668 36.7469 14.7849 36.8805 14.3339 36.9577C13.8829 37.0349 13.4683 37.0744 13.0901 37.0763C12.7118 37.0782 12.3674 37.0568 12.0567 37.0119C11.7424 36.9547 11.4637 36.8802 11.2206 36.7887C10.6362 36.5936 10.154 36.3079 9.77386 35.9315C9.21456 35.4045 8.77167 34.7894 8.44521 34.0863C8.11874 33.3832 7.86292 32.7137 7.67773 32.0777C7.48892 31.4292 7.35567 30.8322 7.27799 30.2866C7.20031 29.7411 7.15871 29.273 7.15317 28.8823C7.14195 28.4256 7.15591 28.0089 7.19505 27.6323C7.23371 27.1611 7.33418 26.7395 7.49645 26.3676C7.65508 25.9832 7.84695 25.6433 8.07205 25.3477C8.30598 25.0361 8.56068 24.7726 8.83613 24.5571C9.12406 24.338 9.40678 24.1474 9.68429 23.9855C10.3479 23.6164 11.0897 23.3531 11.9096 23.1955ZM12.3442 27.1273C12.1322 27.189 11.9713 27.3103 11.8616 27.491C11.7608 27.6557 11.7412 27.844 11.8029 28.056C11.861 28.2555 11.9654 28.4281 12.116 28.5736C12.2754 28.703 12.4985 28.726 12.7854 28.6425C13.0348 28.5699 13.1982 28.4343 13.2757 28.2359C13.3496 28.025 13.3575 27.8198 13.2994 27.6203C13.2449 27.4332 13.1354 27.2893 12.9707 27.1884C12.8024 27.0751 12.5936 27.0547 12.3442 27.1273ZM13.8197 31.5677C13.6077 31.6294 13.4442 31.765 13.3293 31.9743C13.2269 32.18 13.2172 32.379 13.3002 32.5712C13.4014 32.8259 13.5289 32.9849 13.6826 33.0483C13.8489 33.1082 14.038 33.1072 14.25 33.0455C14.462 32.9838 14.6184 32.8706 14.7193 32.7059C14.8202 32.5413 14.8397 32.353 14.778 32.141C14.7199 31.9414 14.6049 31.7788 14.433 31.6529C14.2611 31.5271 14.0566 31.4987 13.8197 31.5677Z" fill="#FEC700"/>
<path d="M18.1328 34.6777C18.6431 33.5705 18.6416 32.2143 18.1787 31.8749" stroke="white" stroke-width="0.540186" stroke-miterlimit="10" stroke-linecap="round" stroke-linejoin="round"/>
<path d="M15.9688 28.1934C16.4791 27.0861 16.4775 25.7299 16.0147 25.3905" stroke="white" stroke-width="0.540186" stroke-miterlimit="10" stroke-linecap="round" stroke-linejoin="round"/>
<path d="M8.50532 29.7078C8.74859 31.3091 8.87048 32.1102 10.1591 35.1937" stroke="white" stroke-width="0.540186" stroke-miterlimit="10" stroke-linecap="round" stroke-linejoin="round"/>
<path d="M22.5003 27.2302C21.7688 27.3558 21.1045 27.3703 20.5074 27.2735C20.2554 27.2335 20.0072 27.1671 19.7629 27.0741C19.5173 26.9682 19.2885 26.8345 19.0765 26.673C18.8761 26.4973 18.7042 26.2796 18.5606 26.0199C18.43 25.7589 18.3459 25.441 18.3083 25.0662C18.2434 24.42 18.3215 23.8966 18.5423 23.4958C18.7748 23.0809 19.0429 22.7603 19.3465 22.534C19.698 22.2638 20.1089 22.0659 20.5793 21.9404C21.5911 21.617 22.5869 21.393 23.5665 21.2687C24.5448 21.1313 25.4307 21.049 26.2242 21.0216C27.134 20.9825 28.0161 20.9919 28.8704 21.0498C29.4779 21.1194 29.9438 21.2749 30.2683 21.5165C30.6057 21.7568 30.8597 22.012 31.0304 22.282C31.2192 22.6025 31.3324 22.9501 31.37 23.3249C31.3986 23.7397 31.3696 24.1016 31.2831 24.4105C31.2096 24.7181 31.0934 24.9909 30.9345 25.2287C30.7872 25.4524 30.6102 25.6398 30.4035 25.7911C30.1967 25.9424 29.9874 26.0678 29.7755 26.1674C29.2754 26.3873 28.6932 26.5044 28.0289 26.5189C28.2955 27.4842 28.4735 28.3475 28.5629 29.1087C28.664 29.8556 28.7217 30.496 28.7361 31.0298C28.7466 31.6553 28.7158 32.1936 28.6436 32.6446C28.5766 33.2779 28.4094 33.7581 28.1419 34.0852C27.8874 34.411 27.6187 34.6598 27.3357 34.8318C27.0023 35.0219 26.6353 35.1371 26.2347 35.1773C25.7837 35.2356 25.3572 35.2131 24.9552 35.1098C24.6062 35.0143 24.2611 34.827 23.9198 34.548C23.5785 34.2689 23.305 33.8199 23.0993 33.2009C22.891 32.5561 22.739 31.886 22.6431 31.1907C22.5589 30.4812 22.5069 29.8338 22.4874 29.2483C22.4703 28.5582 22.4746 27.8855 22.5003 27.2302Z" fill="#252525"/>
<path d="M21.2815 26.0134C20.5501 26.139 19.8858 26.1535 19.2886 26.0567C19.0366 26.0167 18.7884 25.9503 18.5441 25.8573C18.2986 25.7514 18.0698 25.6177 17.8577 25.4562C17.6574 25.2805 17.4854 25.0628 17.3419 24.8031C17.2112 24.5421 17.1271 24.2242 17.0895 23.8494C17.0247 23.2032 17.1027 22.6798 17.3236 22.279C17.5561 21.8641 17.8241 21.5435 18.1278 21.3172C18.4792 21.047 18.8901 20.8491 19.3605 20.7236C20.3724 20.4002 21.3681 20.1762 22.3477 20.0519C23.326 19.9145 24.2119 19.8322 25.0055 19.8048C25.9153 19.7657 26.7974 19.7751 27.6517 19.833C28.2591 19.9026 28.7251 20.0581 29.0495 20.2997C29.3869 20.54 29.641 20.7952 29.8117 21.0652C30.0005 21.3857 30.1137 21.7333 30.1513 22.1081C30.1798 22.5229 30.1509 22.8848 30.0644 23.1937C29.9908 23.5013 29.8746 23.7741 29.7157 24.0119C29.5685 24.2356 29.3915 24.423 29.1847 24.5743C28.978 24.7256 28.7687 24.851 28.5567 24.9506C28.0567 25.1705 27.4745 25.2876 26.8102 25.3021C27.0767 26.2674 27.2547 27.1307 27.3442 27.8919C27.4452 28.6388 27.5029 29.2792 27.5173 29.813C27.5279 30.4385 27.497 30.9768 27.4248 31.4278C27.3578 32.0611 27.1906 32.5413 26.9232 32.8684C26.6687 33.1942 26.4 33.443 26.117 33.615C25.7836 33.8051 25.4166 33.9203 25.016 33.9605C24.5649 34.0188 24.1384 33.9963 23.7365 33.893C23.3875 33.7975 23.0423 33.6102 22.7011 33.3312C22.3598 33.0521 22.0863 32.6031 21.8806 31.9841C21.6723 31.3393 21.5202 30.6692 21.4243 29.9739C21.3401 29.2644 21.2882 28.617 21.2686 28.0315C21.2516 27.3414 21.2559 26.6687 21.2815 26.0134Z" fill="#FEC700"/>
<path d="M22.9022 27.5487C22.9022 29.1684 22.9024 29.9787 23.7133 33.2208" stroke="white" stroke-width="0.540186" stroke-miterlimit="10" stroke-linecap="round" stroke-linejoin="round"/>
<path d="M43.3399 35.8677C42.7461 35.8014 42.2528 35.6549 41.8599 35.4281C41.4813 35.1898 41.1723 34.9136 40.9329 34.5993C40.6935 34.2851 40.5216 33.9523 40.417 33.6008C40.3139 33.2364 40.2402 32.9015 40.1959 32.5959C40.1659 32.2789 40.1567 32.01 40.1683 31.7891C40.1813 31.5553 40.1907 31.4126 40.1964 31.361C40.1734 31.4499 40.1224 31.6141 40.0434 31.8536C39.9788 32.0816 39.8776 32.3448 39.7397 32.6431C39.6033 32.9284 39.4261 33.2289 39.2079 33.5443C39.0026 33.8612 38.7422 34.1458 38.4265 34.3981C38.1252 34.6389 37.7708 34.8281 37.3634 34.9656C36.956 35.1031 36.4877 35.1424 35.9584 35.0833C35.3001 35.0099 34.7422 34.7973 34.2848 34.4457C33.8418 34.0826 33.4798 33.6959 33.1988 33.2856C32.872 32.8178 32.6048 32.2848 32.3971 31.6866C32.1249 30.846 31.9374 30.0082 31.8345 29.1734C31.7445 28.34 31.6911 27.5891 31.6742 26.9207C31.6573 26.1347 31.682 25.386 31.7483 24.6746C31.7816 24.1424 31.8528 23.6799 31.962 23.2869C32.0841 22.8954 32.2262 22.5584 32.3884 22.2759C32.5635 21.9949 32.7523 21.7676 32.9546 21.5941C33.1583 21.4078 33.3642 21.2608 33.5723 21.1534C34.0586 20.894 34.6009 20.778 35.199 20.8056C35.7798 20.8704 36.2703 21.0427 36.6704 21.3226C37.0719 21.5896 37.4002 21.9268 37.6553 22.3342C37.9119 22.7288 38.1053 23.1621 38.2356 23.634C38.3674 24.0931 38.4539 24.5471 38.4953 24.996C38.5496 25.4464 38.5745 25.8674 38.5701 26.259C38.567 26.6377 38.559 26.9439 38.546 27.1777C38.6338 26.5079 38.8004 26.0103 39.0458 25.6848C39.2912 25.3593 39.5452 25.1328 39.8077 25.0052C40.1119 24.8562 40.4447 24.8019 40.8061 24.8422C41.0901 24.8739 41.3303 24.9464 41.5268 25.0598C41.7361 25.1747 41.9103 25.3117 42.0494 25.471C42.1899 25.6174 42.3017 25.7867 42.3848 25.9789C42.4823 26.1597 42.5532 26.344 42.5976 26.5319C42.692 26.9737 42.7155 27.4665 42.6679 28.01C42.7557 27.2226 42.878 26.5371 43.0346 25.9534C43.2041 25.3711 43.3908 24.8692 43.5946 24.4476C43.8129 24.0145 44.0418 23.661 44.2815 23.3872C44.5226 23.1004 44.7636 22.8725 45.0047 22.7033C45.5729 22.2962 46.1833 22.0964 46.8359 22.1039C47.2748 22.1529 47.6555 22.2542 47.9782 22.4078C48.3009 22.5614 48.574 22.7487 48.7977 22.9697C49.0213 23.1907 49.2034 23.4332 49.3438 23.6972C49.4843 23.9611 49.591 24.2344 49.664 24.517C49.8402 25.164 49.8965 25.8891 49.833 26.6923C49.7149 27.7508 49.5373 28.6981 49.3003 29.5342C49.0632 30.3703 48.8198 31.0881 48.57 31.6875C48.2842 32.3744 47.9806 32.9875 47.659 33.5266C47.4495 33.8823 47.2263 34.1841 46.9895 34.4321C46.7656 34.6816 46.5325 34.8973 46.29 35.0794C46.0489 35.2485 45.8043 35.3911 45.5561 35.5072C45.3223 35.6118 45.0978 35.6913 44.8826 35.7457C44.3705 35.8846 43.8562 35.9253 43.3399 35.8677Z" fill="#252525"/>
<path d="M42.1211 34.6509C41.5274 34.5846 41.034 34.4381 40.6411 34.2113C40.2625 33.973 39.9536 33.6968 39.7142 33.3825C39.4748 33.0683 39.3028 32.7355 39.1983 32.384C39.0952 32.0196 39.0214 31.6847 38.9771 31.3791C38.9471 31.0621 38.9379 30.7932 38.9495 30.5723C38.9625 30.3385 38.9719 30.1958 38.9777 30.1442C38.9547 30.2331 38.9037 30.3973 38.8247 30.6368C38.76 30.8648 38.6588 31.128 38.521 31.4263C38.3846 31.7116 38.2073 32.0121 37.9891 32.3275C37.7839 32.6444 37.5234 32.929 37.2078 33.1813C36.9064 33.4221 36.5521 33.6113 36.1447 33.7488C35.7372 33.8863 35.2689 33.9256 34.7397 33.8665C34.0813 33.7931 33.5235 33.5805 33.0661 33.2289C32.623 32.8658 32.261 32.4791 31.9801 32.0688C31.6533 31.601 31.386 31.068 31.1783 30.4698C30.9062 29.6292 30.7186 28.7914 30.6158 27.9566C30.5258 27.1232 30.4723 26.3723 30.4554 25.7039C30.4386 24.9179 30.4633 24.1692 30.5296 23.4578C30.5628 22.9256 30.634 22.4631 30.7432 22.0701C30.8653 21.6786 31.0075 21.3416 31.1697 21.0591C31.3448 20.7781 31.5335 20.5508 31.7358 20.3773C31.9396 20.191 32.1455 20.044 32.3535 19.9366C32.8399 19.6772 33.3821 19.5612 33.9802 19.5888C34.5611 19.6536 35.0516 19.8259 35.4516 20.1058C35.8531 20.3728 36.1814 20.71 36.4365 21.1174C36.6931 21.512 36.8865 21.9453 37.0169 22.4172C37.1486 22.8763 37.2352 23.3303 37.2766 23.7792C37.3309 24.2297 37.3558 24.6506 37.3513 25.0422C37.3483 25.4209 37.3402 25.7271 37.3272 25.9609C37.415 25.2911 37.5816 24.7935 37.827 24.468C38.0725 24.1425 38.3264 23.916 38.589 23.7884C38.8931 23.6394 39.2259 23.5851 39.5874 23.6254C39.8713 23.6571 40.1116 23.7296 40.308 23.843C40.5174 23.9579 40.6916 24.0949 40.8306 24.2542C40.9711 24.4006 41.0829 24.5699 41.1661 24.7621C41.2635 24.9429 41.3344 25.1272 41.3788 25.3151C41.4733 25.757 41.4967 26.2497 41.4491 26.7933C41.537 26.0058 41.6592 25.3203 41.8158 24.7366C41.9853 24.1543 42.172 23.6524 42.3759 23.2308C42.5941 22.7977 42.8231 22.4442 43.0627 22.1704C43.3038 21.8836 43.5449 21.6557 43.7859 21.4865C44.3541 21.0794 44.9645 20.8796 45.6171 20.8871C46.056 20.9361 46.4368 21.0374 46.7594 21.191C47.0821 21.3446 47.3553 21.5319 47.5789 21.7529C47.8026 21.9739 47.9846 22.2164 48.1251 22.4804C48.2655 22.7443 48.3723 23.0176 48.4453 23.3002C48.6214 23.9472 48.6777 24.6723 48.6143 25.4755C48.4962 26.534 48.3186 27.4813 48.0815 28.3174C47.8445 29.1535 47.6011 29.8713 47.3512 30.4707C47.0655 31.1576 46.7618 31.7707 46.4403 32.3098C46.2307 32.6655 46.0075 32.9673 45.7707 33.2153C45.5469 33.4648 45.3137 33.6806 45.0712 33.8626C44.8302 34.0317 44.5856 34.1744 44.3374 34.2904C44.1035 34.395 43.879 34.4745 43.6638 34.5289C43.1517 34.6678 42.6375 34.7085 42.1211 34.6509Z" fill="#FEC700"/>
<path d="M40.6719 31.3301C40.6808 32.5493 41.2587 33.7761 41.822 33.8865" stroke="white" stroke-width="0.540186" stroke-miterlimit="10" stroke-linecap="round" stroke-linejoin="round"/>
<path d="M32.8984 30.7715C33.3172 33.0895 33.1392 32.0012 33.1392 32.0012" stroke="white" stroke-width="0.540186" stroke-miterlimit="10" stroke-linecap="round" stroke-linejoin="round"/>
<path d="M33.1287 22.1626C32.2571 22.6623 31.6484 23.7721 32.5258 28.6963" stroke="white" stroke-width="0.540186" stroke-miterlimit="10" stroke-linecap="round" stroke-linejoin="round"/>
<path d="M51.7853 28.7364C51.7982 28.387 51.8518 28.016 51.9459 27.6237C52.0563 27.2228 52.1734 26.8443 52.2971 26.4883C52.4362 26.0827 52.5915 25.6685 52.7631 25.2457C53.0103 24.7104 53.3189 24.262 53.689 23.9006C53.8459 23.7452 54.0256 23.6037 54.2282 23.476C54.4471 23.3398 54.6831 23.2361 54.9363 23.1648C55.1895 23.0936 55.4722 23.0587 55.7844 23.0601C56.0967 23.0615 56.4328 23.1179 56.7926 23.2292C57.2154 23.4008 57.5946 23.6472 57.9303 23.9686C58.2115 24.246 58.4598 24.6082 58.6749 25.0555C58.8939 25.4903 58.9862 26.0491 58.9517 26.7318C58.9001 27.382 58.8023 27.984 58.6582 28.5376C58.518 29.0789 58.364 29.5547 58.1963 29.965C57.9931 30.446 57.7766 30.8821 57.5469 31.2733C57.2636 31.6615 56.9399 31.9828 56.5757 32.2373C56.264 32.4536 55.8794 32.6201 55.4218 32.7369C54.9767 32.8575 54.4625 32.8276 53.8793 32.6472C53.2216 32.4437 52.7423 32.1255 52.4412 31.6925C52.14 31.2594 51.9416 30.8242 51.8458 30.3867C51.732 29.8756 51.7118 29.3255 51.7853 28.7364ZM55.2958 36.5726C55.2075 36.858 55.0629 37.1056 54.8621 37.3154C54.6651 37.5128 54.4261 37.67 54.1452 37.787C53.8681 37.8917 53.5653 37.9475 53.2368 37.9547C52.9168 37.9781 52.5893 37.938 52.2543 37.8343C51.9193 37.7307 51.6202 37.577 51.3569 37.3732C51.1022 37.1856 50.8901 36.9704 50.7204 36.7276C50.5671 36.4763 50.4648 36.2135 50.4137 35.9394C50.3663 35.6528 50.3868 35.3668 50.4751 35.0814C50.5596 34.8085 50.7022 34.5671 50.9031 34.3573C51.1039 34.1475 51.3367 33.9884 51.6014 33.8799C51.8823 33.7629 52.1808 33.6989 52.4969 33.6879C52.8292 33.6683 53.1629 33.7104 53.4979 33.814C53.833 33.9176 54.1259 34.0694 54.3768 34.2694C54.6439 34.4608 54.8603 34.6841 55.0261 34.9393C55.1957 35.1821 55.3041 35.4468 55.3515 35.7333C55.3988 36.0199 55.3802 36.2997 55.2958 36.5726Z" fill="#252525"/>
<path d="M50.5665 27.5196C50.5794 27.1702 50.633 26.7992 50.7272 26.4069C50.8376 26.006 50.9547 25.6275 51.0784 25.2715C51.2175 24.8659 51.3728 24.4517 51.5443 24.0289C51.7915 23.4936 52.1002 23.0452 52.4703 22.6838C52.6271 22.5284 52.8068 22.3869 53.0095 22.2592C53.2284 22.123 53.4644 22.0193 53.7176 21.948C53.9707 21.8768 54.2534 21.8419 54.5657 21.8433C54.878 21.8447 55.214 21.9011 55.5739 22.0124C55.9966 22.184 56.3758 22.4304 56.7115 22.7518C56.9928 23.0292 57.241 23.3915 57.4562 23.8387C57.6751 24.2735 57.7674 24.8323 57.733 25.515C57.6814 26.1652 57.5835 26.7672 57.4395 27.3208C57.2992 27.8621 57.1453 28.3379 56.9775 28.7482C56.7744 29.2292 56.5579 29.6653 56.3281 30.0565C56.0449 30.4447 55.7211 30.766 55.3569 31.0205C55.0453 31.2368 54.6607 31.4033 54.2031 31.5201C53.7579 31.6407 53.2437 31.6108 52.6605 31.4304C52.0029 31.2269 51.5235 30.9087 51.2224 30.4757C50.9213 30.0426 50.7228 29.6074 50.6271 29.1699C50.5132 28.6588 50.493 28.1087 50.5665 27.5196ZM54.077 35.3558C53.9887 35.6412 53.8442 35.8888 53.6433 36.0986C53.4463 36.296 53.2073 36.4532 52.9264 36.5702C52.6493 36.6749 52.3465 36.7307 52.018 36.7379C51.6981 36.7613 51.3706 36.7212 51.0356 36.6175C50.7005 36.5139 50.4014 36.3602 50.1381 36.1564C49.8835 35.9688 49.6713 35.7537 49.5017 35.5108C49.3483 35.2595 49.2461 34.9967 49.1949 34.7226C49.1476 34.436 49.1681 34.15 49.2564 33.8646C49.3408 33.5917 49.4835 33.3503 49.6843 33.1405C49.8852 32.9307 50.1179 32.7716 50.3826 32.6631C50.6635 32.5461 50.962 32.4821 51.2781 32.4711C51.6105 32.4515 51.9442 32.4936 52.2792 32.5972C52.6142 32.7008 52.9072 32.8526 53.158 33.0526C53.4251 33.244 53.6415 33.4673 53.8073 33.7225C53.9769 33.9653 54.0854 34.23 54.1327 34.5165C54.18 34.8031 54.1615 35.0829 54.077 35.3558Z" fill="#FEC700"/>
<path d="M51.3986 28.6309C51.3304 29.1209 51.3029 29.5279 51.3315 29.831" stroke="white" stroke-width="0.540186" stroke-miterlimit="10" stroke-linecap="round" stroke-linejoin="round"/>
<path d="M54.5525 23.7695C53.5295 24.0368 52.3198 25.2731 51.8516 27.0106" stroke="white" stroke-width="0.540186" stroke-miterlimit="10" stroke-linecap="round" stroke-linejoin="round"/>
<path d="M50.6856 34.0312C50.0422 34.1755 49.4749 35.0919 49.7804 35.8337" stroke="white" stroke-width="0.540186" stroke-miterlimit="10" stroke-linecap="round" stroke-linejoin="round"/>
</g>
<defs>
<clipPath id="clip0_8066_55485">
<rect width="64.8224" height="61.3774" fill="white"/>
</clipPath>
</defs>
</svg>
