<svg width="16" height="16" viewBox="0 0 16 16" fill="none" xmlns="http://www.w3.org/2000/svg">
<path d="M5.33331 1.33331V3.33331" stroke="#252525" stroke-miterlimit="10" stroke-linecap="round" stroke-linejoin="round"/>
<path d="M10.6667 1.33331V3.33331" stroke="#252525" stroke-miterlimit="10" stroke-linecap="round" stroke-linejoin="round"/>
<path d="M2.33331 6.06H13.6666" stroke="#252525" stroke-miterlimit="10" stroke-linecap="round" stroke-linejoin="round"/>
<path d="M14.6666 12.6667C14.6666 13.1667 14.5266 13.64 14.28 14.04C13.82 14.8133 12.9733 15.3333 12 15.3333C11.3266 15.3333 10.7133 15.0867 10.2466 14.6667C10.04 14.4933 9.85998 14.28 9.71998 14.04C9.47331 13.64 9.33331 13.1667 9.33331 12.6667C9.33331 11.1933 10.5266 10 12 10C12.8 10 13.5133 10.3533 14 10.9067C14.4133 11.38 14.6666 11.9933 14.6666 12.6667Z" stroke="#252525" stroke-miterlimit="10" stroke-linecap="round" stroke-linejoin="round"/>
<path d="M10.96 12.6667L11.62 13.3267L13.04 12.0134" stroke="#252525" stroke-linecap="round" stroke-linejoin="round"/>
<path d="M14 5.66665V10.9066C13.5133 10.3533 12.8 9.99998 12 9.99998C10.5267 9.99998 9.33333 11.1933 9.33333 12.6666C9.33333 13.1666 9.47333 13.64 9.72 14.04C9.86 14.28 10.04 14.4933 10.2467 14.6666H5.33333C3 14.6666 2 13.3333 2 11.3333V5.66665C2 3.66665 3 2.33331 5.33333 2.33331H10.6667C13 2.33331 14 3.66665 14 5.66665Z" stroke="#252525" stroke-miterlimit="10" stroke-linecap="round" stroke-linejoin="round"/>
<path d="M7.99697 9.13332H8.00296" stroke="#252525" stroke-width="1.33333" stroke-linecap="round" stroke-linejoin="round"/>
<path d="M5.52956 9.13332H5.53555" stroke="#252525" stroke-width="1.33333" stroke-linecap="round" stroke-linejoin="round"/>
<path d="M5.52956 11.1333H5.53555" stroke="#252525" stroke-width="1.33333" stroke-linecap="round" stroke-linejoin="round"/>
</svg>
