<svg width="76" height="65" viewBox="0 0 76 65" fill="none" xmlns="http://www.w3.org/2000/svg">
<rect x="3.60156" y="2.66699" width="62" height="62" rx="30" fill="#FFF8EB"/>
<path d="M48.9181 25.0677V32.4669C48.9181 34.3095 48.3087 35.8619 47.2206 36.9355C46.147 38.0236 44.5946 38.633 42.752 38.633V41.259C42.752 42.2455 41.6494 42.8404 40.8369 42.2891L39.4296 41.3605C39.5602 40.9108 39.6182 40.4175 39.6182 39.8952V33.9904C39.6182 31.0307 37.6451 29.0575 34.6854 29.0575H24.8342C24.6311 29.0575 24.4425 29.072 24.2539 29.0866V25.0677C24.2539 21.3681 26.7203 18.9017 30.4199 18.9017H42.752C46.4517 18.9017 48.9181 21.3681 48.9181 25.0677Z" stroke="#B27A14" stroke-width="2.18" stroke-miterlimit="10" stroke-linecap="round" stroke-linejoin="round"/>
<path d="M39.6182 33.9904V39.8952C39.6182 40.4175 39.5602 40.9108 39.4296 41.3605C38.8928 43.4933 37.1228 44.828 34.6854 44.828H30.7391L26.3576 47.7442C25.7047 48.194 24.8342 47.7152 24.8342 46.9318V44.828C23.3543 44.828 22.1211 44.3348 21.2652 43.4788C20.3947 42.6083 19.9014 41.375 19.9014 39.8952V33.9904C19.9014 31.2338 21.6134 29.3332 24.2539 29.0865C24.4425 29.072 24.6311 29.0575 24.8342 29.0575H34.6854C37.6451 29.0575 39.6182 31.0307 39.6182 33.9904Z" stroke="#B27A14" stroke-width="2.18" stroke-miterlimit="10" stroke-linecap="round" stroke-linejoin="round"/>
<circle cx="74.6016" cy="22.334" r="1" fill="#E6A123"/>
<circle cx="67.6016" cy="55.334" r="2" fill="#E6A123"/>
<circle cx="1.60156" cy="52.334" r="1" fill="#E6A123"/>
<circle cx="15.6016" cy="2.33398" r="2" fill="#E6A123"/>
</svg>
