<svg width="21" height="20" viewBox="0 0 21 20" fill="none" xmlns="http://www.w3.org/2000/svg">
<g id="Icon">
<path id="Vector" d="M4 17.5C3.44771 17.5 3 17.0523 3 16.5V12.6786C3 12.3827 3.23985 12.1429 3.53571 12.1429C3.83158 12.1429 4.07143 12.3827 4.07143 12.6786V15.9286C4.07143 16.2047 4.29529 16.4286 4.57143 16.4286H7.82143C8.1173 16.4286 8.35714 16.6684 8.35714 16.9643C8.35714 17.2602 8.1173 17.5 7.82143 17.5H4ZM3.53571 7.85714C3.23985 7.85714 3 7.6173 3 7.32143V3.5C3 2.94771 3.44772 2.5 4 2.5H7.82143C8.1173 2.5 8.35714 2.73985 8.35714 3.03571C8.35714 3.33158 8.1173 3.57143 7.82143 3.57143H4.57143C4.29529 3.57143 4.07143 3.79529 4.07143 4.07143V7.32143C4.07143 7.6173 3.83158 7.85714 3.53571 7.85714ZM13.1786 17.5C12.8827 17.5 12.6429 17.2602 12.6429 16.9643C12.6429 16.6684 12.8827 16.4286 13.1786 16.4286H16.4286C16.7047 16.4286 16.9286 16.2047 16.9286 15.9286V12.6786C16.9286 12.3827 17.1684 12.1429 17.4643 12.1429C17.7602 12.1429 18 12.3827 18 12.6786V16.5C18 17.0523 17.5523 17.5 17 17.5H13.1786ZM17.4643 7.85714C17.1684 7.85714 16.9286 7.6173 16.9286 7.32143V4.57143C16.9286 4.01914 16.4809 3.57143 15.9286 3.57143H13.1786C12.8827 3.57143 12.6429 3.33158 12.6429 3.03571C12.6429 2.73985 12.8827 2.5 13.1786 2.5H17C17.5523 2.5 18 2.94772 18 3.5V7.32143C18 7.6173 17.7602 7.85714 17.4643 7.85714Z" fill="#252525"/>
</g>
</svg>
