<svg width="76" height="65" viewBox="0 0 76 65" fill="none" xmlns="http://www.w3.org/2000/svg">
<rect x="3.60156" y="2.66699" width="62" height="62" rx="30" fill="#FFF8EB" fill-opacity="0.2"/>
<path d="M48.9181 25.0679V32.4671C48.9181 34.3097 48.3087 35.8621 47.2206 36.9357C46.147 38.0238 44.5946 38.6332 42.752 38.6332V41.2592C42.752 42.2457 41.6494 42.8406 40.8369 42.2893L39.4296 41.3607C39.5602 40.911 39.6182 40.4177 39.6182 39.8954V33.9906C39.6182 31.0309 37.6451 29.0577 34.6854 29.0577H24.8342C24.6311 29.0577 24.4425 29.0722 24.2539 29.0867V25.0679C24.2539 21.3683 26.7203 18.9019 30.4199 18.9019H42.752C46.4517 18.9019 48.9181 21.3683 48.9181 25.0679Z" stroke="#E6A123" stroke-width="2.18" stroke-miterlimit="10" stroke-linecap="round" stroke-linejoin="round"/>
<path d="M39.6192 33.9905V39.8953C39.6192 40.4176 39.5611 40.9109 39.4306 41.3607C38.8938 43.4934 37.1237 44.8282 34.6863 44.8282H30.7401L26.3585 47.7444C25.7057 48.1941 24.8352 47.7153 24.8352 46.9319V44.8282C23.3553 44.8282 22.1221 44.3349 21.2661 43.4789C20.3956 42.6084 19.9023 41.3751 19.9023 39.8953V33.9905C19.9023 31.2339 21.6143 29.3333 24.2548 29.0867C24.4435 29.0722 24.6321 29.0576 24.8352 29.0576H34.6863C37.646 29.0576 39.6192 31.0308 39.6192 33.9905Z" stroke="#E6A123" stroke-width="2.18" stroke-miterlimit="10" stroke-linecap="round" stroke-linejoin="round"/>
<circle cx="74.6016" cy="22.334" r="1" fill="#E6A123"/>
<circle cx="67.6016" cy="55.334" r="2" fill="#E6A123"/>
<circle cx="1.60156" cy="52.334" r="1" fill="#E6A123"/>
<circle cx="15.6016" cy="2.33398" r="2" fill="#E6A123"/>
</svg>
