<svg width="24" height="24" viewBox="0 0 24 24" fill="none" xmlns="http://www.w3.org/2000/svg">
<path d="M10 4H14C16 4 16 3.25 16 2.5C16 1 15 1 14 1H10C9 1 8 1 8 2.5C8 4 9 4 10 4Z" stroke="#252525" stroke-width="1.5" stroke-miterlimit="10" stroke-linecap="round" stroke-linejoin="round"/>
<path d="M16 3C19.33 3.20022 21 4.56841 21 9.65184V16.3259C21 20.7753 20 23 15 23H9C4 23 3 20.7753 3 16.3259V9.65184C3 4.57953 4.67 3.20022 8 3" stroke="#252525" stroke-width="1.5" stroke-miterlimit="10" stroke-linecap="round" stroke-linejoin="round"/>
<path d="M7 13.5L7.75 14.25L10 12" stroke="#252525" stroke-width="1.5" stroke-linecap="round" stroke-linejoin="round"/>
<path d="M12 14.25H17.25" stroke="#252525" stroke-width="1.5" stroke-linecap="round" stroke-linejoin="round"/>
<path d="M7 17.75L7.75 18.5L10 16.25" stroke="#252525" stroke-width="1.5" stroke-linecap="round" stroke-linejoin="round"/>
<path d="M12 18.5H17.25" stroke="#252525" stroke-width="1.5" stroke-linecap="round" stroke-linejoin="round"/>
</svg>
