<svg width="290" height="67" viewBox="0 0 290 67" fill="none" xmlns="http://www.w3.org/2000/svg">
<path d="M144.318 5.60156C136.741 5.60156 129.475 8.61142 124.117 13.9685C118.76 19.326 115.75 26.5923 115.75 34.1691C115.75 41.7459 118.76 49.0119 124.117 54.3697C129.474 59.7268 136.741 62.7366 144.318 62.7366C151.894 62.7366 159.16 59.7268 164.518 54.3697C169.875 49.0121 172.885 41.7459 172.885 34.1691C172.885 26.5923 169.875 19.3263 164.518 13.9685C159.161 8.61142 151.894 5.60156 144.318 5.60156Z" fill="white"/>
<path d="M144.318 5.60156C136.741 5.60156 129.475 8.61142 124.117 13.9685C118.76 19.326 115.75 26.5923 115.75 34.1691C115.75 41.7459 118.76 49.0119 124.117 54.3697C129.474 59.7268 136.741 62.7366 144.318 62.7366C151.894 62.7366 159.16 59.7268 164.518 54.3697C169.875 49.0121 172.885 41.7459 172.885 34.1691C172.885 26.5923 169.875 19.3263 164.518 13.9685C159.161 8.61142 151.894 5.60156 144.318 5.60156Z" fill="#1AC387" fill-opacity="0.1"/>
<path d="M156.509 22.6499L140.377 37.8447L133.679 30.8103C132.971 30.073 131.922 29.7671 130.925 30.0076C129.93 30.2487 129.138 30.9995 128.85 31.9773C128.562 32.9558 128.821 34.0124 129.528 34.7499L138.207 43.754C138.723 44.2932 139.439 44.5984 140.188 44.5984C140.925 44.6343 141.644 44.3618 142.169 43.8476L160.377 26.6831C160.908 26.1695 161.216 25.4693 161.234 24.7325C161.251 23.9958 160.978 23.2815 160.471 22.7436C159.968 22.1922 159.259 21.8697 158.51 21.8524C157.761 21.8344 157.038 22.1229 156.509 22.65L156.509 22.6499Z" fill="#1AC387"/>
<path d="M221 7C221 7 221.276 9.57497 222.35 10.6495C223.425 11.7241 226 12 226 12C226 12 223.425 12.2759 222.35 13.3505C221.276 14.425 221 17 221 17C221 17 220.724 14.425 219.65 13.3505C218.575 12.2759 216 12 216 12C216 12 218.575 11.7241 219.65 10.6495C220.724 9.57497 221 7 221 7Z" fill="#1AC387"/>
<path opacity="0.4" d="M88.5 43C88.5 43 89.0242 47.8924 91.0659 49.9341C93.1076 51.9758 98 52.5 98 52.5C98 52.5 93.1076 53.0242 91.0659 55.0659C89.0242 57.1076 88.5 62 88.5 62C88.5 62 87.9758 57.1076 85.9341 55.0659C83.8924 53.0242 79 52.5 79 52.5C79 52.5 83.8924 51.9758 85.9341 49.9341C87.9758 47.8924 88.5 43 88.5 43Z" fill="#1AC387"/>
<path d="M64 8.05152L67.7678 11.3672L71.0835 8.50365L75.1527 11.3672L78.4684 8.50365L82.2362 11.3672L85.5519 8.50365L89.4704 11.3672" stroke="#1AC387" stroke-width="0.968283" stroke-linecap="round"/>
<path opacity="0.3" d="M72.9844 0.99683L76.7522 4.3125L80.0679 1.44897L84.1371 4.3125L87.4528 1.44897L91.2206 4.3125L94.5362 1.44897L98.4548 4.3125" stroke="#1AC387" stroke-width="0.968283" stroke-linecap="round"/>
</svg>
