<svg width="76" height="65" viewBox="0 0 76 65" fill="none" xmlns="http://www.w3.org/2000/svg">
<rect x="3.60156" y="2.66699" width="62" height="62" rx="30" fill="#FFF8EB"/>
<path d="M48.9186 25.0677V32.4669C48.9186 34.3095 48.3092 35.8619 47.2211 36.9355C46.1475 38.0236 44.5951 38.633 42.7525 38.633V41.259C42.7525 42.2455 41.6499 42.8404 40.8374 42.2891L39.4301 41.3605C39.5607 40.9108 39.6187 40.4175 39.6187 39.8952V33.9904C39.6187 31.0307 37.6456 29.0575 34.6859 29.0575H24.8347C24.6316 29.0575 24.443 29.072 24.2544 29.0866V25.0677C24.2544 21.3681 26.7208 18.9017 30.4204 18.9017H42.7525C46.4521 18.9017 48.9186 21.3681 48.9186 25.0677Z" stroke="#B27A14" stroke-width="2.18" stroke-miterlimit="10" stroke-linecap="round" stroke-linejoin="round"/>
<path d="M39.6187 33.9904V39.8952C39.6187 40.4175 39.5607 40.9108 39.4301 41.3605C38.8933 43.4933 37.1233 44.828 34.6859 44.828H30.7396L26.3581 47.7442C25.7052 48.194 24.8347 47.7152 24.8347 46.9318V44.828C23.3548 44.828 22.1216 44.3348 21.2656 43.4788C20.3951 42.6083 19.9019 41.375 19.9019 39.8952V33.9904C19.9019 31.2338 21.6138 29.3332 24.2544 29.0865C24.443 29.072 24.6316 29.0575 24.8347 29.0575H34.6859C37.6456 29.0575 39.6187 31.0307 39.6187 33.9904Z" stroke="#B27A14" stroke-width="2.18" stroke-miterlimit="10" stroke-linecap="round" stroke-linejoin="round"/>
<circle cx="74.6016" cy="22.334" r="1" fill="#E6A123"/>
<circle cx="67.6016" cy="55.334" r="2" fill="#E6A123"/>
<circle cx="1.60156" cy="52.334" r="1" fill="#E6A123"/>
<circle cx="15.6016" cy="2.33398" r="2" fill="#E6A123"/>
</svg>
