<svg width="24" height="25" viewBox="0 0 24 25" fill="none" xmlns="http://www.w3.org/2000/svg">
<g id="vuesax/linear/note-2">
<g id="note-2">
<path id="Vector" d="M21.6602 10.4486L20.6802 14.6318C19.8402 18.2446 18.1802 19.7058 15.0602 19.4055C14.5602 19.3655 14.0202 19.2754 13.4402 19.1353L11.7602 18.735C7.59018 17.7442 6.30018 15.6826 7.28018 11.4994L8.26018 7.30616C8.46018 6.45551 8.70018 5.71493 9.00018 5.10446C10.1702 2.68259 12.1602 2.03208 15.5002 2.8227L17.1702 3.213C21.3602 4.19376 22.6402 6.26536 21.6602 10.4486Z" stroke="#252525" stroke-width="1.5" stroke-linecap="round" stroke-linejoin="round"/>
<path id="Vector_2" d="M15.0662 19.4046C14.4462 19.8249 13.6662 20.1752 12.7162 20.4854L11.1362 21.0058C7.1662 22.2868 5.0762 21.216 3.7862 17.2429L2.5062 13.2898C1.2262 9.31677 2.2862 7.21515 6.2562 5.93416L7.8362 5.41376C8.2462 5.28365 8.6362 5.17357 9.0062 5.10352C8.7062 5.71399 8.4662 6.45456 8.2662 7.30522L7.2862 11.4985C6.3062 15.6817 7.5962 17.7433 11.7662 18.7341L13.4462 19.1344C14.0262 19.2745 14.5662 19.3645 15.0662 19.4046Z" stroke="#252525" stroke-width="1.5" stroke-linecap="round" stroke-linejoin="round"/>
<path id="Vector_3" d="M12.6406 8.53516L17.4906 9.76516" stroke="#252525" stroke-width="1.5" stroke-linecap="round" stroke-linejoin="round"/>
<path id="Vector_4" d="M11.6562 12.4121L14.5563 13.1521" stroke="#252525" stroke-width="1.5" stroke-linecap="round" stroke-linejoin="round"/>
</g>
</g>
</svg>
