<svg width="24" height="25" viewBox="0 0 24 25" fill="none" xmlns="http://www.w3.org/2000/svg">
<path d="M21.6626 10.4487L20.6826 14.632C19.8426 18.2447 18.1826 19.7059 15.0626 19.4056C14.5626 19.3656 14.0226 19.2755 13.4426 19.1354L11.7626 18.7351C7.59262 17.7444 6.30262 15.6828 7.28262 11.4995L8.26262 7.30629C8.46262 6.45563 8.70262 5.71505 9.00262 5.10458C10.1726 2.68271 12.1626 2.03221 15.5026 2.82282L17.1726 3.21312C21.3626 4.19388 22.6426 6.26548 21.6626 10.4487Z" stroke="#252525" stroke-width="1.5" stroke-linecap="round" stroke-linejoin="round"/>
<path d="M15.0647 19.4052C14.4447 19.8256 13.6647 20.1758 12.7147 20.4861L11.1347 21.0065C7.16474 22.2875 5.07474 21.2166 3.78474 17.2436L2.50474 13.2905C1.22474 9.31744 2.28474 7.21582 6.25474 5.93483L7.83474 5.41443C8.24474 5.28433 8.63474 5.17424 9.00474 5.10419C8.70474 5.71466 8.46474 6.45523 8.26474 7.30589L7.28474 11.4991C6.30474 15.6824 7.59474 17.744 11.7647 18.7347L13.4447 19.135C14.0247 19.2751 14.5647 19.3652 15.0647 19.4052Z" stroke="#252525" stroke-width="1.5" stroke-linecap="round" stroke-linejoin="round"/>
<path d="M12.6436 8.53552L17.4936 9.76552" stroke="#252525" stroke-width="1.5" stroke-linecap="round" stroke-linejoin="round"/>
<path d="M11.6584 12.412L14.5584 13.152" stroke="#252525" stroke-width="1.5" stroke-linecap="round" stroke-linejoin="round"/>
</svg>
