<svg width="15" height="14" viewBox="0 0 15 14" fill="none" xmlns="http://www.w3.org/2000/svg">
<path d="M5.7474 2.91667H4.58073C4.27131 2.91667 3.97456 3.03958 3.75577 3.25838C3.53698 3.47717 3.41406 3.77391 3.41406 4.08333V11.0833C3.41406 11.3928 3.53698 11.6895 3.75577 11.9083C3.97456 12.1271 4.27131 12.25 4.58073 12.25H10.4141C10.7235 12.25 11.0202 12.1271 11.239 11.9083C11.4578 11.6895 11.5807 11.3928 11.5807 11.0833V4.08333C11.5807 3.77391 11.4578 3.47717 11.239 3.25838C11.0202 3.03958 10.7235 2.91667 10.4141 2.91667H9.2474M5.7474 2.91667C5.7474 3.22609 5.87031 3.52283 6.0891 3.74162C6.3079 3.96042 6.60464 4.08333 6.91406 4.08333H8.08073C8.39015 4.08333 8.68689 3.96042 8.90569 3.74162C9.12448 3.52283 9.2474 3.22609 9.2474 2.91667M5.7474 2.91667C5.7474 2.60725 5.87031 2.3105 6.0891 2.09171C6.3079 1.87292 6.60464 1.75 6.91406 1.75H8.08073C8.39015 1.75 8.68689 1.87292 8.90569 2.09171C9.12448 2.3105 9.2474 2.60725 9.2474 2.91667" stroke="#E6A123" stroke-linecap="round" stroke-linejoin="round"/>
<path d="M7.5 7H9.25M7.5 9.33333H9.25M5.75 7H5.75583M5.75 9.33333H5.75583" stroke="#E6A123" stroke-linecap="round" stroke-linejoin="round"/>
</svg>
