<svg width="14" height="14" viewBox="0 0 14 14" fill="none" xmlns="http://www.w3.org/2000/svg">
<g clip-path="url(#clip0_193_2223)">
<path d="M13.4167 11.6666V8.16663H9.91675" stroke="#121212" stroke-width="1.5" stroke-linecap="round" stroke-linejoin="round"/>
<path d="M0.583252 2.33337V5.83337H4.08325" stroke="#252525" stroke-width="1.5" stroke-linecap="round" stroke-linejoin="round"/>
<path d="M11.9524 5.24996C11.6566 4.41392 11.1538 3.66645 10.4909 3.07729C9.82804 2.48813 9.02673 2.07649 8.16175 1.88078C7.29677 1.68507 6.39631 1.71166 5.54439 1.95808C4.69247 2.2045 3.91686 2.66271 3.28992 3.28996L0.583252 5.8333M13.4166 8.16663L10.7099 10.71C10.083 11.3372 9.30737 11.7954 8.45545 12.0418C7.60353 12.2883 6.70307 12.3149 5.83809 12.1191C4.97311 11.9234 4.1718 11.5118 3.50894 10.9226C2.84608 10.3335 2.34327 9.586 2.04742 8.74996" stroke="#252525" stroke-width="1.5" stroke-linecap="round" stroke-linejoin="round"/>
</g>
<defs>
<clipPath id="clip0_193_2223">
<rect width="14" height="14" fill="white"/>
</clipPath>
</defs>
</svg>
