<svg width="21" height="20" viewBox="0 0 21 20" fill="none" xmlns="http://www.w3.org/2000/svg">
<path d="M10.5001 1.6665C5.90841 1.6665 2.16675 5.40817 2.16675 9.99984C2.16675 14.5915 5.90841 18.3332 10.5001 18.3332C15.0917 18.3332 18.8334 14.5915 18.8334 9.99984C18.8334 5.40817 15.0917 1.6665 10.5001 1.6665ZM14.4834 8.08317L9.75841 12.8082C9.64175 12.9248 9.48342 12.9915 9.31675 12.9915C9.15008 12.9915 8.99175 12.9248 8.87508 12.8082L6.51675 10.4498C6.27508 10.2082 6.27508 9.80817 6.51675 9.5665C6.75841 9.32484 7.15841 9.32484 7.40008 9.5665L9.31675 11.4832L13.6001 7.19984C13.8417 6.95817 14.2417 6.95817 14.4834 7.19984C14.7251 7.4415 14.7251 7.83317 14.4834 8.08317Z" fill="#10B981"/>
</svg>
