<svg width="16" height="16" viewBox="0 0 16 16" fill="none" xmlns="http://www.w3.org/2000/svg">
<path d="M9.15327 2.34019L10.3266 4.68686C10.4866 5.01353 10.9133 5.32686 11.2733 5.38686L13.3999 5.74019C14.7599 5.96686 15.0799 6.95353 14.0999 7.92686L12.4466 9.58019C12.1666 9.86019 12.0133 10.4002 12.0999 10.7869L12.5733 12.8335C12.9466 14.4535 12.0866 15.0802 10.6533 14.2335L8.65994 13.0535C8.29994 12.8402 7.70661 12.8402 7.33994 13.0535L5.34661 14.2335C3.91994 15.0802 3.05327 14.4469 3.42661 12.8335L3.89994 10.7869C3.98661 10.4002 3.83327 9.86019 3.55327 9.58019L1.89994 7.92686C0.926606 6.95353 1.23994 5.96686 2.59994 5.74019L4.72661 5.38686C5.07994 5.32686 5.50661 5.01353 5.66661 4.68686L6.83994 2.34019C7.47994 1.06686 8.51994 1.06686 9.15327 2.34019Z" stroke="#E6A123" stroke-linecap="round" stroke-linejoin="round"/>
</svg>
