<svg width="360" height="119" viewBox="0 0 360 119" fill="none" xmlns="http://www.w3.org/2000/svg">
<g filter="url(#filter0_d_8161_55454)">
<path d="M360 40C360 28.9543 351.046 20 340 20H20C8.95432 20 0 28.9543 0 40V119H360V40Z" fill="url(#paint0_linear_8161_55454)"/>
</g>
<g opacity="0.6">
<mask id="mask0_8161_55454" style="mask-type:alpha" maskUnits="userSpaceOnUse" x="0" y="20" width="360" height="99">
<path d="M0 119H350C355.523 119 360 114.523 360 109V20H0V119Z" fill="#FAFAFA"/>
</mask>
<g mask="url(#mask0_8161_55454)">
<ellipse opacity="0.4" cx="285.118" cy="21" rx="15.36" ry="16" fill="white"/>
<ellipse opacity="0.4" cx="366.718" cy="124" rx="24.96" ry="26" fill="white"/>
<path opacity="0.2" d="M-27.226 243.72C-43.7513 264.075 -30.7551 201.942 -23.0242 188.332C-11.8769 168.708 68.2928 123.642 135.56 100.838C202.826 78.034 328.828 121.409 343.701 75.5474C358.573 29.6862 325.756 -27.2832 329.838 -28.9997" stroke="#E6A123" stroke-width="11.2338"/>
<path opacity="0.2" d="M-44.226 223.72C-60.7513 244.075 -47.7551 181.942 -40.0242 168.332C-28.8769 148.708 51.2928 103.642 118.56 80.8378C185.826 58.034 311.828 101.409 326.701 55.5474C341.573 9.68615 308.756 -47.2832 312.838 -48.9997" stroke="#E6A123" stroke-width="11.2338"/>
</g>
</g>
<defs>
<filter id="filter0_d_8161_55454" x="-16" y="0" width="392" height="131" filterUnits="userSpaceOnUse" color-interpolation-filters="sRGB">
<feFlood flood-opacity="0" result="BackgroundImageFix"/>
<feColorMatrix in="SourceAlpha" type="matrix" values="0 0 0 0 0 0 0 0 0 0 0 0 0 0 0 0 0 0 127 0" result="hardAlpha"/>
<feOffset dy="-4"/>
<feGaussianBlur stdDeviation="8"/>
<feColorMatrix type="matrix" values="0 0 0 0 0 0 0 0 0 0 0 0 0 0 0 0 0 0 0.05 0"/>
<feBlend mode="normal" in2="BackgroundImageFix" result="effect1_dropShadow_8161_55454"/>
<feBlend mode="normal" in="SourceGraphic" in2="effect1_dropShadow_8161_55454" result="shape"/>
</filter>
<linearGradient id="paint0_linear_8161_55454" x1="190" y1="119" x2="364" y2="0.499995" gradientUnits="userSpaceOnUse">
<stop stop-color="#FAECD3"/>
<stop offset="1" stop-color="white"/>
</linearGradient>
</defs>
</svg>
