<svg width="12" height="12" viewBox="0 0 12 12" fill="none" xmlns="http://www.w3.org/2000/svg">
<path d="M6 4.25V1.5" stroke="white" stroke-width="0.75" stroke-linecap="round" stroke-linejoin="round"/>
<path d="M6 10.5V7.75" stroke="white" stroke-width="0.75" stroke-linecap="round" stroke-linejoin="round"/>
<path d="M5 1.5H7" stroke="white" stroke-width="0.75" stroke-linecap="round" stroke-linejoin="round"/>
<path d="M5 10.5H7" stroke="white" stroke-width="0.75" stroke-linecap="round" stroke-linejoin="round"/>
<path d="M4.48547 5.125L2.10547 3.75" stroke="white" stroke-width="0.75" stroke-linecap="round" stroke-linejoin="round"/>
<path d="M9.89563 8.25L7.51562 6.875" stroke="white" stroke-width="0.75" stroke-linecap="round" stroke-linejoin="round"/>
<path d="M1.60547 4.61476L2.60547 2.88477" stroke="white" stroke-width="0.75" stroke-linecap="round" stroke-linejoin="round"/>
<path d="M9.39453 9.11476L10.3945 7.38477" stroke="white" stroke-width="0.75" stroke-linecap="round" stroke-linejoin="round"/>
<path d="M7.75 6C7.75 6.32 7.665 6.615 7.515 6.875C7.21 7.4 6.645 7.75 6 7.75C5.355 7.75 4.79 7.4 4.485 6.875C4.335 6.615 4.25 6.32 4.25 6C4.25 5.68 4.335 5.385 4.485 5.125C4.79 4.6 5.355 4.25 6 4.25C6.645 4.25 7.21 4.6 7.515 5.125C7.665 5.385 7.75 5.68 7.75 6Z" fill="white" stroke="white" stroke-width="0.75" stroke-linecap="round" stroke-linejoin="round"/>
<path d="M9.89563 3.75L7.51562 5.125" stroke="white" stroke-width="0.75" stroke-linecap="round" stroke-linejoin="round"/>
<path d="M4.48547 6.875L2.10547 8.25" stroke="white" stroke-width="0.75" stroke-linecap="round" stroke-linejoin="round"/>
<path d="M10.3945 4.61476L9.39453 2.88477" stroke="white" stroke-width="0.75" stroke-linecap="round" stroke-linejoin="round"/>
<path d="M2.60547 9.11476L1.60547 7.38477" stroke="white" stroke-width="0.75" stroke-linecap="round" stroke-linejoin="round"/>
</svg>
